<svg width="25" height="23" viewBox="0 0 25 23" fill="none" xmlns="http://www.w3.org/2000/svg">
<path d="M0 0H25V23H0V0Z" fill="#2C2433"/>
<path d="M16.9437 6.05625C15.675 4.7875 13.9338 4 12 4C10.1435 4 8.36301 4.7375 7.05025 6.05025C5.7375 7.36301 5 9.14348 5 11C5 12.8565 5.7375 14.637 7.05025 15.9497C8.36301 17.2625 10.1435 18 12 18C15.2638 18 17.985 15.7688 18.7638 12.75H16.9437C16.2262 14.7887 14.2837 16.25 12 16.25C10.6076 16.25 9.27225 15.6969 8.28769 14.7123C7.30312 13.7277 6.75 12.3924 6.75 11C6.75 9.60761 7.30312 8.27226 8.28769 7.28769C9.27225 6.30312 10.6076 5.75 12 5.75C13.4525 5.75 14.7475 6.35375 15.6925 7.3075L12.875 10.125H19V4L16.9437 6.05625Z" fill="white" fill-opacity="0.75"/>
</svg>
